<svg width="150" height="31" viewBox="0 0 272 31" fill="none" xmlns="http://www.w3.org/2000/svg">
<path d="M24.7273 22.2982C12.3636 22.2982 0 24.4737 0 24.4737V31H272V0C272 0 259.636 2.99123 247.273 2.99123C234.909 2.99123 234.909 5.16667 222.545 5.16667C210.182 5.16667 210.182 7.07018 197.818 7.07018C185.455 7.07018 185.455 8.70175 173.091 8.70175C160.727 8.70175 160.727 11.693 148.364 11.693C136 11.693 136 13.3246 123.636 13.3246C111.273 13.3246 111.273 16.3158 98.9091 16.3158C86.5455 16.3158 86.5455 18.2193 74.1818 18.2193C61.8182 18.2193 61.8182 19.8509 49.4545 19.8509C37.0909 19.8509 37.0909 22.2982 24.7273 22.2982Z" fill="#E78839"/>
</svg>
