<svg width="150" height="45" viewBox="0 0 272 45" fill="none" xmlns="http://www.w3.org/2000/svg">
<path d="M24.7273 30.7895C12.3636 30.7895 0 33.1579 0 33.1579V45H272V0C272 0 259.636 2.36842 247.273 2.36842C234.909 2.36842 234.909 6.71053 222.545 6.71053C210.182 6.71053 210.182 10.2632 197.818 10.2632C185.455 10.2632 185.455 14.2105 173.091 14.2105C160.727 14.2105 160.727 16.1842 148.364 16.1842C136 16.1842 136 18.5526 123.636 18.5526C111.273 18.5526 111.273 22.1053 98.9091 22.1053C86.5455 22.1053 86.5455 25.2632 74.1818 25.2632C61.8182 25.2632 61.8182 28.8158 49.4545 28.8158C37.0909 28.8158 37.0909 30.7895 24.7273 30.7895Z" fill="#E78839" fill-opacity="0.25"/>
</svg>
