<svg width="140" height="80" viewBox="0 0 240 100" fill="none" xmlns="http://www.w3.org/2000/svg">
<path d="M21.8182 68.4211C10.9091 68.4211 0 73.6842 0 73.6842V100H240V0C240 0 229.091 5.26316 218.182 5.26316C207.273 5.26316 207.273 14.9123 196.364 14.9123C185.455 14.9123 185.455 22.807 174.545 22.807C163.636 22.807 163.636 31.5789 152.727 31.5789C141.818 31.5789 141.818 35.9649 130.909 35.9649C120 35.9649 120 41.2281 109.091 41.2281C98.1818 41.2281 98.1818 49.1228 87.2727 49.1228C76.3636 49.1228 76.3636 56.1404 65.4545 56.1404C54.5455 56.1404 54.5455 64.0351 43.6364 64.0351C32.7273 64.0351 32.7273 68.4211 21.8182 68.4211Z" fill="#1D55E5" fill-opacity="0.25"/>
</svg>
