<svg width="150" height="90" viewBox="0 0 240 94" fill="none" xmlns="http://www.w3.org/2000/svg">
<path d="M21.8182 67.614C10.9091 67.614 0 74.2105 0 74.2105V94H240V0C240 0 229.091 9.07018 218.182 9.07018C207.273 9.07018 207.273 15.6667 196.364 15.6667C185.455 15.6667 185.455 21.4386 174.545 21.4386C163.636 21.4386 163.636 26.386 152.727 26.386C141.818 26.386 141.818 35.4561 130.909 35.4561C120 35.4561 120 40.4035 109.091 40.4035C98.1818 40.4035 98.1818 49.4737 87.2727 49.4737C76.3636 49.4737 76.3636 55.2456 65.4545 55.2456C54.5455 55.2456 54.5455 60.193 43.6364 60.193C32.7273 60.193 32.7273 67.614 21.8182 67.614Z" fill="#34A853"/>
</svg>
