<svg width="150" height="130" viewBox="0 0 240 138" fill="none" xmlns="http://www.w3.org/2000/svg">
<path d="M21.8182 94.4211C10.9091 94.4211 0 101.684 0 101.684V138H240V0C240 0 229.091 7.26316 218.182 7.26316C207.273 7.26316 207.273 20.5789 196.364 20.5789C185.455 20.5789 185.455 31.4737 174.545 31.4737C163.636 31.4737 163.636 43.5789 152.727 43.5789C141.818 43.5789 141.818 49.6316 130.909 49.6316C120 49.6316 120 56.8947 109.091 56.8947C98.1818 56.8947 98.1818 67.7895 87.2727 67.7895C76.3636 67.7895 76.3636 77.4737 65.4545 77.4737C54.5455 77.4737 54.5455 88.3684 43.6364 88.3684C32.7273 88.3684 32.7273 94.4211 21.8182 94.4211Z" fill="#34A853" fill-opacity="0.25"/>
</svg>
