<svg width="140" height="58" viewBox="0 0 240 68" fill="none" xmlns="http://www.w3.org/2000/svg">
<path d="M21.8182 48.9123C10.9091 48.9123 0 53.6842 0 53.6842V68H240V0C240 0 229.091 6.5614 218.182 6.5614C207.273 6.5614 207.273 11.3333 196.364 11.3333C185.455 11.3333 185.455 15.5088 174.545 15.5088C163.636 15.5088 163.636 19.0877 152.727 19.0877C141.818 19.0877 141.818 25.6491 130.909 25.6491C120 25.6491 120 29.2281 109.091 29.2281C98.1818 29.2281 98.1818 35.7895 87.2727 35.7895C76.3636 35.7895 76.3636 39.9649 65.4545 39.9649C54.5455 39.9649 54.5455 43.5439 43.6364 43.5439C32.7273 43.5439 32.7273 48.9123 21.8182 48.9123Z" fill="#1D55E6"/>
</svg>
